<?xml version="1.0" encoding="utf-8"?>
<svg xmlns="http://www.w3.org/2000/svg" xmlns:xlink="http://www.w3.org/1999/xlink" width="738" height="213.84" viewBox="90 198.6 738 213.84" version="1.1">
  <g id="surface1">
    <path style=" stroke:none;fill-rule:nonzero;fill:rgb(229, 9, 20);fill-opacity:1;" d="M 199.039062 381.488281 C 188.625 383.320312 178.027344 383.867188 167.066406 385.328125 L 133.628906 287.394531 L 133.628906 389.53125 C 123.214844 390.625 113.710938 392.089844 103.847656 393.550781 L 103.847656 206.449219 L 131.621094 206.449219 L 169.625 312.609375 L 169.625 206.449219 L 199.039062 206.449219 Z M 256.597656 274.96875 C 267.925781 274.96875 285.28125 274.417969 295.695312 274.417969 L 295.695312 303.652344 C 282.722656 303.652344 267.558594 303.652344 256.597656 304.203125 L 256.597656 347.6875 C 273.773438 346.59375 290.945312 345.128906 308.304688 344.582031 L 308.304688 372.71875 L 227.359375 379.113281 L 227.359375 206.449219 L 308.304688 206.449219 L 308.304688 235.683594 L 256.597656 235.683594 Z M 417.019531 235.683594 L 386.6875 235.683594 L 386.6875 370.164062 C 376.820312 370.164062 366.957031 370.164062 357.457031 370.527344 L 357.457031 235.683594 L 327.125 235.683594 L 327.125 206.449219 L 417.019531 206.449219 Z M 464.523438 272.957031 L 504.539062 272.957031 L 504.539062 302.191406 L 464.523438 302.191406 L 464.523438 368.519531 L 435.835938 368.519531 L 435.835938 206.449219 L 517.511719 206.449219 L 517.511719 235.683594 L 464.523438 235.683594 Z M 565.019531 342.9375 C 581.644531 343.300781 598.453125 344.582031 614.71875 345.496094 L 614.71875 374.363281 C 588.589844 372.71875 562.460938 371.078125 535.785156 370.527344 L 535.785156 206.449219 L 565.019531 206.449219 Z M 639.382812 376.375 C 648.703125 376.925781 658.570312 377.472656 668.070312 378.566406 L 668.070312 206.449219 L 639.382812 206.449219 Z M 796.152344 206.449219 L 759.0625 295.433594 L 796.152344 393.550781 C 785.191406 392.089844 774.226562 390.078125 763.265625 388.25 L 742.253906 334.167969 L 720.875 383.867188 C 710.277344 382.039062 700.046875 381.488281 689.449219 380.027344 L 727.089844 294.335938 L 693.101562 206.449219 L 724.527344 206.449219 L 743.714844 255.601562 L 764.179688 206.449219 Z M 796.152344 206.449219 " />
  </g>
</svg>